<svg xmlns="http://www.w3.org/2000/svg" viewBox="0 0 680 610" width="680" height="610" font-family="-apple-system, BlinkMacSystemFont, Segoe UI, Roboto, Helvetica, Arial, sans-serif" role="img" aria-label="Fonctionnement d'AI-Finance DAF, des documents aux pages">
<defs><marker id="fl" viewBox="0 0 10 10" refX="9" refY="5" markerWidth="8" markerHeight="8" orient="auto"><path d="M0,0 L10,5 L0,10 z" fill="#7C8599"/></marker></defs>
<rect x="40" y="40" width="600" height="52" rx="6" fill="#EEF1F5" stroke="#1F2937" stroke-opacity="0.25"/><text x="340.0" y="61" text-anchor="middle" font-size="14" font-weight="600" fill="#1F2937">Documents du client (data room)</text><text x="340.0" y="80" text-anchor="middle" font-size="12" fill="#1F2937" fill-opacity="0.85">liasses, balances, FEC, pièces juridiques, scans</text>
<line x1="107" y1="92" x2="107" y2="118" stroke="#7C8599" stroke-width="1.5" marker-end="url(#fl)"/>
<line x1="262" y1="92" x2="262" y2="118" stroke="#7C8599" stroke-width="1.5" marker-end="url(#fl)"/>
<line x1="417" y1="92" x2="417" y2="118" stroke="#7C8599" stroke-width="1.5" marker-end="url(#fl)"/>
<line x1="572" y1="92" x2="572" y2="118" stroke="#7C8599" stroke-width="1.5" marker-end="url(#fl)"/>
<rect x="40" y="120" width="135" height="52" rx="6" fill="#D7F1EE" stroke="#0F4C46" stroke-opacity="0.25"/><text x="107.5" y="141" text-anchor="middle" font-size="14" font-weight="600" fill="#0F4C46">Liasses</text><text x="107.5" y="160" text-anchor="middle" font-size="12" fill="#0F4C46" fill-opacity="0.85">codes Cerfa</text>
<rect x="195" y="120" width="135" height="52" rx="6" fill="#D7F1EE" stroke="#0F4C46" stroke-opacity="0.25"/><text x="262.5" y="141" text-anchor="middle" font-size="14" font-weight="600" fill="#0F4C46">Balances</text><text x="262.5" y="160" text-anchor="middle" font-size="12" fill="#0F4C46" fill-opacity="0.85">postes par compte</text>
<rect x="350" y="120" width="135" height="52" rx="6" fill="#D7F1EE" stroke="#0F4C46" stroke-opacity="0.25"/><text x="417.5" y="141" text-anchor="middle" font-size="14" font-weight="600" fill="#0F4C46">FEC</text><text x="417.5" y="160" text-anchor="middle" font-size="12" fill="#0F4C46" fill-opacity="0.85">écritures datées</text>
<rect x="505" y="120" width="135" height="52" rx="6" fill="#D7F1EE" stroke="#0F4C46" stroke-opacity="0.25"/><text x="572.5" y="141" text-anchor="middle" font-size="14" font-weight="600" fill="#0F4C46">PV et scans</text><text x="572.5" y="160" text-anchor="middle" font-size="12" fill="#0F4C46" fill-opacity="0.85">dates, OCR</text>
<line x1="107" y1="172" x2="300" y2="198" stroke="#7C8599" stroke-width="1.5" marker-end="url(#fl)"/>
<line x1="262" y1="172" x2="380" y2="198" stroke="#7C8599" stroke-width="1.5" marker-end="url(#fl)"/>
<line x1="417" y1="172" x2="460" y2="198" stroke="#7C8599" stroke-width="1.5" marker-end="url(#fl)"/>
<line x1="572" y1="172" x2="560" y2="198" stroke="#7C8599" stroke-width="1.5" marker-end="url(#fl)"/>
<rect x="40" y="200" width="190" height="52" rx="6" fill="#FCEFD2" stroke="#6B4A0E" stroke-opacity="0.25"/><text x="135.0" y="221" text-anchor="middle" font-size="14" font-weight="600" fill="#6B4A0E">Configuration du groupe</text><text x="135.0" y="240" text-anchor="middle" font-size="12" fill="#6B4A0E" fill-opacity="0.85">sociétés, flux, seuils</text>
<rect x="250" y="200" width="390" height="52" rx="6" fill="#E6F1FB" stroke="#0C447C" stroke-opacity="0.25"/><text x="445.0" y="221" text-anchor="middle" font-size="14" font-weight="600" fill="#0C447C">Historique par société</text><text x="445.0" y="240" text-anchor="middle" font-size="12" fill="#0C447C" fill-opacity="0.85">liasse, balance, FEC, corrections ; provenance</text>
<line x1="135" y1="252" x2="135" y2="278" stroke="#7C8599" stroke-width="1.5" marker-end="url(#fl)"/>
<line x1="445" y1="252" x2="445" y2="278" stroke="#7C8599" stroke-width="1.5" marker-end="url(#fl)"/>
<rect x="40" y="280" width="600" height="76" rx="6" fill="#EDE7F6" stroke="#3C2A6B" stroke-opacity="0.25"/><text x="340.0" y="301" text-anchor="middle" font-size="14" font-weight="600" fill="#3C2A6B">Moteur de consolidation</text><text x="340.0" y="320" text-anchor="middle" font-size="12" fill="#3C2A6B" fill-opacity="0.85">périmètre, éliminations, minoritaires, équivalence</text><text x="340.0" y="338" text-anchor="middle" font-size="12" fill="#3C2A6B" fill-opacity="0.85">écart d'acquisition, devises, crédit-bail, tableau de flux</text>
<line x1="107" y1="356" x2="107" y2="382" stroke="#7C8599" stroke-width="1.5" marker-end="url(#fl)"/>
<line x1="262" y1="356" x2="262" y2="382" stroke="#7C8599" stroke-width="1.5" marker-end="url(#fl)"/>
<line x1="417" y1="356" x2="417" y2="382" stroke="#7C8599" stroke-width="1.5" marker-end="url(#fl)"/>
<line x1="572" y1="356" x2="572" y2="382" stroke="#7C8599" stroke-width="1.5" marker-end="url(#fl)"/>
<rect x="40" y="384" width="135" height="52" rx="6" fill="#DFF5E4" stroke="#1E5631" stroke-opacity="0.25"/><text x="107.5" y="405" text-anchor="middle" font-size="14" font-weight="600" fill="#1E5631">Vigilance</text><text x="107.5" y="424" text-anchor="middle" font-size="12" fill="#1E5631" fill-opacity="0.85">ratios et seuils</text>
<rect x="195" y="384" width="135" height="52" rx="6" fill="#DFF5E4" stroke="#1E5631" stroke-opacity="0.25"/><text x="262.5" y="405" text-anchor="middle" font-size="14" font-weight="600" fill="#1E5631">Contrôles</text><text x="262.5" y="424" text-anchor="middle" font-size="12" fill="#1E5631" fill-opacity="0.85">cohérence, à traiter</text>
<rect x="350" y="384" width="135" height="52" rx="6" fill="#DFF5E4" stroke="#1E5631" stroke-opacity="0.25"/><text x="417.5" y="405" text-anchor="middle" font-size="14" font-weight="600" fill="#1E5631">Pièces</text><text x="417.5" y="424" text-anchor="middle" font-size="12" fill="#1E5631" fill-opacity="0.85">échéancier légal</text>
<rect x="505" y="384" width="135" height="52" rx="6" fill="#DFF5E4" stroke="#1E5631" stroke-opacity="0.25"/><text x="572.5" y="405" text-anchor="middle" font-size="14" font-weight="600" fill="#1E5631">Repères et IA</text><text x="572.5" y="424" text-anchor="middle" font-size="12" fill="#1E5631" fill-opacity="0.85">Insee, assistant</text>
<line x1="107" y1="436" x2="107" y2="462" stroke="#7C8599" stroke-width="1.5" marker-end="url(#fl)"/>
<line x1="262" y1="436" x2="262" y2="462" stroke="#7C8599" stroke-width="1.5" marker-end="url(#fl)"/>
<line x1="417" y1="436" x2="417" y2="462" stroke="#7C8599" stroke-width="1.5" marker-end="url(#fl)"/>
<line x1="572" y1="436" x2="572" y2="462" stroke="#7C8599" stroke-width="1.5" marker-end="url(#fl)"/>
<rect x="40" y="464" width="600" height="44" rx="6" fill="#EEF1F5" stroke="#1F2937" stroke-opacity="0.25"/><text x="340.0" y="485" text-anchor="middle" font-size="14" font-weight="600" fill="#1F2937">API locale</text><text x="340.0" y="500" text-anchor="middle" font-size="12" fill="#1F2937" fill-opacity="0.85">serveur sur le poste, aussi servi en réseau local</text>
<line x1="135" y1="508" x2="135" y2="534" stroke="#7C8599" stroke-width="1.5" marker-end="url(#fl)"/>
<line x1="340" y1="508" x2="340" y2="534" stroke="#7C8599" stroke-width="1.5" marker-end="url(#fl)"/>
<line x1="545" y1="508" x2="545" y2="534" stroke="#7C8599" stroke-width="1.5" marker-end="url(#fl)"/>
<rect x="40" y="536" width="190" height="52" rx="6" fill="#E6F1FB" stroke="#0C447C" stroke-opacity="0.25"/><text x="135.0" y="557" text-anchor="middle" font-size="14" font-weight="600" fill="#0C447C">Interface</text><text x="135.0" y="576" text-anchor="middle" font-size="12" fill="#0C447C" fill-opacity="0.85">Electron ou navigateur</text>
<rect x="245" y="536" width="190" height="52" rx="6" fill="#E6F1FB" stroke="#0C447C" stroke-opacity="0.25"/><text x="340.0" y="557" text-anchor="middle" font-size="14" font-weight="600" fill="#0C447C">Rapport PDF</text><text x="340.0" y="576" text-anchor="middle" font-size="12" fill="#0C447C" fill-opacity="0.85">synthèse à annexe</text>
<rect x="450" y="536" width="190" height="52" rx="6" fill="#E6F1FB" stroke="#0C447C" stroke-opacity="0.25"/><text x="545.0" y="557" text-anchor="middle" font-size="14" font-weight="600" fill="#0C447C">Classeur Excel</text><text x="545.0" y="576" text-anchor="middle" font-size="12" fill="#0C447C" fill-opacity="0.85">une feuille par sujet</text>
</svg>